<svg width="16" height="15" viewBox="0 0 16 15" fill="none" xmlns="http://www.w3.org/2000/svg">
<path d="M7.86457 4.77424C6.54932 4.77424 5.47597 5.84761 5.47597 7.16288C5.47597 8.47816 6.54932 9.55153 7.86457 9.55153C9.17982 9.55153 10.2532 8.47816 10.2532 7.16288C10.2532 5.84761 9.17982 4.77424 7.86457 4.77424ZM15.0286 7.16288C15.0286 6.17374 15.0375 5.19355 14.982 4.2062C14.9264 3.05936 14.6648 2.04154 13.8262 1.20292C12.9858 0.362503 11.9698 0.102673 10.823 0.0471232C9.83387 -0.00842668 8.8537 0.000533 7.86636 0.000533C6.87724 0.000533 5.89707 -0.00842668 4.90973 0.0471232C3.76292 0.102673 2.74512 0.364295 1.90651 1.20292C1.06611 2.04333 0.806284 3.05936 0.750736 4.2062C0.695187 5.19534 0.704146 6.17553 0.704146 7.16288C0.704146 8.15024 0.695187 9.13222 0.750736 10.1196C0.806284 11.2664 1.0679 12.2842 1.90651 13.1228C2.74691 13.9633 3.76292 14.2231 4.90973 14.2786C5.89886 14.3342 6.87903 14.3252 7.86636 14.3252C8.85549 14.3252 9.83566 14.3342 10.823 14.2786C11.9698 14.2231 12.9876 13.9615 13.8262 13.1228C14.6666 12.2824 14.9264 11.2664 14.982 10.1196C15.0393 9.13222 15.0286 8.15203 15.0286 7.16288ZM7.86457 10.8381C5.83077 10.8381 4.18939 9.19673 4.18939 7.16288C4.18939 5.12904 5.83077 3.48763 7.86457 3.48763C9.89838 3.48763 11.5398 5.12904 11.5398 7.16288C11.5398 9.19673 9.89838 10.8381 7.86457 10.8381ZM11.6903 4.19545C11.2154 4.19545 10.832 3.81197 10.832 3.33711C10.832 2.86225 11.2154 2.47877 11.6903 2.47877C12.1651 2.47877 12.5486 2.86225 12.5486 3.33711C12.5487 3.44987 12.5266 3.56155 12.4835 3.66575C12.4405 3.76995 12.3772 3.86463 12.2975 3.94436C12.2178 4.02409 12.1231 4.08731 12.0189 4.1304C11.9147 4.17348 11.803 4.19559 11.6903 4.19545Z" fill="white" fill-opacity="0.9"/>
</svg>
