<svg width="21" height="15" viewBox="0 0 21 15" fill="none" xmlns="http://www.w3.org/2000/svg">
<path d="M20.4026 2.23783C20.284 1.8045 20.0514 1.40932 19.7282 1.09185C19.4049 0.774383 19.0023 0.54576 18.5607 0.428861C16.9351 8.70198e-08 10.4187 0 10.4187 0C10.4187 0 3.90238 -8.70198e-08 2.27677 0.426579C1.83496 0.543099 1.43217 0.771596 1.10887 1.08912C0.785561 1.40665 0.553122 1.80203 0.434889 2.23555C-8.8715e-08 3.83237 0 7.16288 0 7.16288C0 7.16288 -8.8715e-08 10.4934 0.434889 12.0879C0.674427 12.9685 1.38141 13.6619 2.27677 13.8969C3.90238 14.3258 10.4187 14.3258 10.4187 14.3258C10.4187 14.3258 16.9351 14.3258 18.5607 13.8969C19.4584 13.6619 20.1631 12.9685 20.4026 12.0879C20.8375 10.4934 20.8375 7.16288 20.8375 7.16288C20.8375 7.16288 20.8375 3.83237 20.4026 2.23783ZM8.34895 10.2197V4.10611L13.7444 7.14007L8.34895 10.2197Z" fill="white" fill-opacity="0.9"/>
</svg>
