<svg width="15" height="15" viewBox="0 0 15 15" fill="none" xmlns="http://www.w3.org/2000/svg">
<path d="M7.15 0C5.73587 0 4.35349 0.41934 3.17768 1.20499C2.00186 1.99064 1.08543 3.10732 0.544264 4.41381C0.00309798 5.7203 -0.138496 7.15793 0.137388 8.54489C0.413273 9.93186 1.09424 11.2059 2.09419 12.2058C3.09413 13.2058 4.36814 13.8867 5.75511 14.1626C7.14207 14.4385 8.5797 14.2969 9.88619 13.7557C11.1927 13.2146 12.3094 12.2981 13.095 11.1223C13.8807 9.94651 14.3 8.56413 14.3 7.15C14.2981 5.25428 13.5442 3.43675 12.2037 2.09628C10.8632 0.755802 9.04572 0.00189288 7.15 0ZM11.3964 5.51479V5.97668C11.3964 6.01203 11.3893 6.04703 11.3756 6.0796C11.3618 6.11217 11.3417 6.14166 11.3164 6.16632C11.2911 6.19098 11.261 6.21032 11.2281 6.22319C11.1952 6.23605 11.16 6.24219 11.1247 6.24123C10.3698 6.18773 9.64761 5.91209 9.04904 5.44901V8.82953C9.04895 9.20368 8.9743 9.57407 8.82944 9.91903C8.68457 10.264 8.47241 10.5766 8.20534 10.8387C7.93588 11.1073 7.61568 11.3195 7.26338 11.4632C6.91108 11.6068 6.53373 11.6789 6.15329 11.6752C5.38819 11.6739 4.65389 11.3737 4.10696 10.8387C3.75904 10.4879 3.50843 10.0526 3.3798 9.57557C3.25118 9.09854 3.24896 8.59625 3.37337 8.11811C3.48706 7.65908 3.71657 7.23723 4.04047 6.89331C4.28201 6.59808 4.58649 6.36056 4.93164 6.19814C5.27678 6.03571 5.65387 5.95247 6.03532 5.95452H6.62162V7.17216C6.62188 7.20753 6.61459 7.24254 6.60026 7.27487C6.58592 7.30719 6.56485 7.33609 6.53847 7.35964C6.51208 7.38318 6.48098 7.40083 6.44723 7.41141C6.41349 7.42199 6.37787 7.42525 6.34277 7.42098C6.00235 7.31873 5.63553 7.35265 5.31963 7.51558C5.00373 7.67852 4.76343 7.95774 4.64939 8.29439C4.53535 8.63104 4.55648 8.99882 4.70831 9.3202C4.86015 9.64158 5.13084 9.89146 5.46332 10.0171C5.65637 10.128 5.8723 10.193 6.09395 10.2081C6.26555 10.2152 6.43715 10.1938 6.60017 10.1423C6.87243 10.0506 7.10927 9.87625 7.27758 9.64345C7.4459 9.41066 7.53728 9.1311 7.53896 8.84383V2.68411C7.53887 2.65034 7.54544 2.61689 7.5583 2.58566C7.57115 2.55444 7.59004 2.52605 7.61389 2.50214C7.63773 2.47823 7.66606 2.45926 7.69725 2.44632C7.72844 2.43337 7.76188 2.42671 7.79565 2.42671H8.80737C8.87316 2.42662 8.93647 2.45179 8.98424 2.49703C9.032 2.54226 9.06057 2.60411 9.06406 2.66981C9.10106 2.98525 9.2013 3.29 9.3588 3.5658C9.5163 3.84161 9.72781 4.08281 9.98069 4.27498C10.3225 4.53159 10.7285 4.68894 11.154 4.72972C11.2177 4.73517 11.2773 4.76353 11.3218 4.80954C11.3662 4.85555 11.3924 4.91609 11.3957 4.97997L11.3964 5.51479Z" fill="#E5E5E5"/>
</svg>
