<?xml version="1.0" encoding="utf-8"?>
<!-- Generator: Adobe Illustrator 27.7.0, SVG Export Plug-In . SVG Version: 6.00 Build 0)  -->
<svg version="1.1" id="Capa_1" xmlns="http://www.w3.org/2000/svg" xmlns:xlink="http://www.w3.org/1999/xlink" x="0px" y="0px"
	 viewBox="0 0 1566 626.6" style="enable-background:new 0 0 1566 626.6;" xml:space="preserve">
<style type="text/css">
	.st0{fill:#FFFFFF;}
</style>
<g>
	<path class="st0" d="M631.2,59.9H178.3c-35.1,0-57.6,37.3-41.2,68.4l45.3,85.8h-82.1c-16.7,0-30.2,13.5-30.2,30.2
		c0,4.9,1.2,9.7,3.5,14.1L219.3,534c7.8,14.7,26.1,20.4,40.8,12.6c5.3-2.8,9.7-7.2,12.6-12.6l39.6-74.5l49.6,94
		c17.5,33.1,64.8,33.1,82.3,0.1l227-427.1C687.3,96.3,665.4,59.9,631.2,59.9z M427.8,242.4l-97.9,184.2c-5.2,9.8-17.4,13.5-27.2,8.3
		c-3.6-1.9-6.5-4.8-8.3-8.3l-96.9-183.4c-5.2-9.8-1.5-22,8.4-27.2c2.9-1.5,6.1-2.3,9.3-2.3h195.3c10.8,0,19.6,8.8,19.6,19.6
		C430.1,236.4,429.3,239.5,427.8,242.4L427.8,242.4z"/>
	<path class="st0" d="M1112.8,258h-49.5v169.8c0,3.2-2.6,5.8-5.8,5.8h-38.2c-3.2,0-5.8-2.6-5.8-5.8V258h-49.8
		c-3.1,0.1-5.7-2.3-5.8-5.4c0-0.1,0-0.1,0-0.2v-30c0-3.1,2.6-5.6,5.7-5.5c0.1,0,0.1,0,0.2,0h149.2c3.2-0.2,6,2.3,6.1,5.5v30
		C1118.8,255.7,1116,258.2,1112.8,258z"/>
	<path class="st0" d="M1271.8,432.4c-10.2,1.5-27.4,3.8-58.9,3.8c-37.6,0-70.9-9.6-70.9-62.7v-96.9c0-53.1,33.5-62.4,71.1-62.4
		c31.5,0,48.4,2.3,58.6,3.8c4.1,0.6,5.8,2,5.8,5.8V251c0,3.2-2.6,5.8-5.8,5.8h-61.5c-13.7,0-18.7,4.7-18.7,19.8v26.5h77.8
		c3.2,0,5.8,2.6,5.8,5.8v27.7c0,3.2-2.6,5.8-5.8,5.8h-77.8v30.9c0,15.2,5,19.8,18.7,19.8h61.5c3.2,0,5.8,2.6,5.8,5.8v27.1
		C1277.7,430.1,1275.9,431.8,1271.8,432.4z"/>
	<path class="st0" d="M1491.9,433.6h-46.4c-3.8,0-5.5-1.2-7.6-4.4l-40.2-63.8l-36.4,62.4c-2,3.5-4.1,5.8-7.3,5.8h-43.2
		c-2.9,0-4.4-1.8-4.4-3.8c0.1-0.7,0.3-1.4,0.6-2l63.2-105.3l-63.8-100c-0.3-0.5-0.5-1.1-0.6-1.8c0.2-2.2,2.1-3.9,4.4-3.8h46.9
		c3.2,0,5.5,2.9,7.3,5.5l37.3,58.9l36.1-58.9c1.5-2.6,4.1-5.5,7.3-5.5h43.2c2.2-0.1,4.2,1.6,4.4,3.8c-0.1,0.6-0.3,1.2-0.6,1.8
		l-63.5,100.6l66.2,104.7c0.5,0.9,0.8,1.9,0.9,2.9C1495.7,432.4,1494.2,433.6,1491.9,433.6z"/>
	<path class="st0" d="M887.9,217.5c-2.1,0-4,1.5-4.4,3.6l-42.3,156.7c-0.6,3.2-1.5,4.4-4.1,4.4s-3.5-1.2-4.1-4.4l-42.4-156.7
		c-0.4-2.1-2.3-3.6-4.4-3.6h-41.7c-2.5,0-4.5,2-4.5,4.5c0,0.3,0,0.7,0.1,1c0,0,51.7,179.7,52.3,181.4c6.9,21.4,23.6,31.6,45,31.6
		c20.3,0,38-10.7,44.9-31.6c0.8-2.4,51.4-181.5,51.4-181.5c0.6-2.4-1-4.8-3.4-5.4c-0.3-0.1-0.7-0.1-1-0.1L887.9,217.5z"/>
	<path class="st0" d="M631.2,59.9H178.3c-35.1,0-57.6,37.3-41.2,68.4l45.3,85.8h-82.1c-16.7,0-30.2,13.5-30.2,30.2
		c0,4.9,1.2,9.7,3.5,14.1L219.3,534c7.8,14.7,26.1,20.4,40.8,12.6c5.3-2.8,9.7-7.2,12.6-12.6l39.6-74.5l49.6,94
		c17.5,33.1,64.8,33.1,82.3,0.1l227-427.1C687.3,96.3,665.4,59.9,631.2,59.9z M427.8,242.4l-97.9,184.2c-5.2,9.8-17.4,13.5-27.2,8.3
		c-3.6-1.9-6.5-4.8-8.3-8.3l-96.9-183.4c-5.2-9.8-1.5-22,8.4-27.2c2.9-1.5,6.1-2.3,9.3-2.3h195.3c10.8,0,19.6,8.8,19.6,19.6
		C430.1,236.4,429.3,239.5,427.8,242.4L427.8,242.4z"/>
</g>
</svg>
